<svg xmlns="http://www.w3.org/2000/svg" viewBox="0 0 257.51 295.93"><defs><style>.cls-1{fill:#00a168;}</style></defs><title>crocodile</title><g id="レイヤー_2" data-name="レイヤー 2"><g id="レイヤー_2-2" data-name="レイヤー 2"><path class="cls-1" d="M146.18,278.42l.65,1.46A5.79,5.79,0,0,0,146.18,278.42Z"/><path class="cls-1" d="M247.57,120.3c-7.13-2.67-21.4-20.51-29.42-25.85s-38.34-28.53-29.42-39.23,3.57-12.48,3.57-12.48,25-12.48,20.51-18.72c0,0,8.12-3.69,8.91-9.06-5.42,1.42-7.13-1.55-15.71-.12-8.83,1.47-8.83,5.89-17.66,5.89s-20.6-4.41-26.49-2.94-13.24,11-13.24,11V26.6s7.36-8.83,13.24-10.3,17.66,2.94,26.49,2.94,8.83-4.41,17.66-5.89c8.59-1.43,10.23,1.3,15.73.1,0,0,0-.09,0-.14S225.28,8,215.48,3.5s-9.81,3.57-18.72,2.67S192.3-.06,182.49,1.72s-7.13-5.35-15.16.89-34.77,25-26.75,43.69,5.35,31.2-4.46,46.36-17.83,18.72-16,33,4.46,24.07-1.78,39.23c0,0,5.35-.89.89,7.13,0,0,4.46-4.46,4.46-8s3.57,3.57,1.78,8.92a12.56,12.56,0,0,0,2.67-4.46c.89-2.67,1.78,8.92,0,11.59a26.38,26.38,0,0,1-2.67,3.57,70,70,0,0,0-7.13,25.85c-.89,14.26-32.1,40.12-76.67,25C-8.3,213.91,52.77,142.14,61.24,133.67c12.93-12.93,12.48-24.07,0-30.31-6.17-3.08-10.25-8.14-8.92-12.48,1.78-8-4.39-5.55-2.67-10.7.89-2.67,4.46-6.24,4.46-6.24s-9.81,5.35-5.35,10.7c2.91,3.49-4.46,11.59,0,16,5,5,11.89,9.38,12.48,15.16.46,4.46-3.51,9.75-10.7,16.94C30.91,152.41,3.29,180,.61,204.1c-2.76,24.81,2.67,46.36,39.23,61.52s82-8,82-8-2.67,27.64-5.35,30.31c0,0,4.46-3.57,5.35-6.24s2.67-1.78,3.57,4.46-.89,9.81-.89,9.81,5.35-9.81,5.35-16,3.57-1.78,4.46,0,1.78,8,1.78,8,2.67-7.13,1.78-13.37c-.78-5.48,6,0,8.27,3.89-1.69-3.77-6.29-13.85-9.16-18.15a16.13,16.13,0,0,1-2.67-10.7s21.4-23.18,25.85-33.88,10.7-12.48,13.37-9.81,2.67,3.57,1.78,6.24-4.46,14.26.89,21.4,13.37,15.16,17.83,28.53a3.9,3.9,0,0,0,.89-2.67c0-1.78,4.46,1.78,5.35,10.7a12.66,12.66,0,0,0,.89-9.81c-1.78-5.35-10.7-21.4-12.48-23.18s-2.67-7.13.89-14.26,8.92-24.07-10.7-37.44c0,0,25-39.23,17.83-90.94a22.61,22.61,0,0,1,11.59,6.24,62.52,62.52,0,0,0,18.72,12.48c10.7,4.46,17.83,16,23.18,16a10,10,0,0,1-3.57-4.46c-.89-2.67,7.13,2.67,8,4.46,0,0,.89-1.78,0-2.67s1.78,0,2.67.89S254.7,123,247.57,120.3ZM171.79,3.5a10.35,10.35,0,0,1,8.92,5.35,48,48,0,0,1-7.13.89c-2.67,0-8-1.78-8-1.78S168.22,3.5,171.79,3.5Z"/></g></g></svg>