<svg xmlns="http://www.w3.org/2000/svg" viewBox="0 0 589.06 173.49"><defs><style>.cls-1{font-size:123px;}.cls-1,.cls-2,.cls-4,.cls-7{fill:#fff;}.cls-1,.cls-4{font-family:GillSans-Bold, Gill Sans;}.cls-1,.cls-2,.cls-4{font-weight:700;letter-spacing:0.25em;}.cls-2{font-size:22px;font-family:GillSans-SemiBold, Gill Sans;}.cls-3{fill:none;stroke:#fff;stroke-miterlimit:10;stroke-width:3px;}.cls-4{font-size:33px;}.cls-5{letter-spacing:0.23em;}.cls-6{letter-spacing:0.19em;}</style></defs><title>logo-wht</title><g id="レイヤー_2" data-name="レイヤー 2"><g id="レイヤー_2-2" data-name="レイヤー 2"><text class="cls-1" transform="translate(174.77 103.42)">NZM</text><text class="cls-2" transform="translate(570.43 97.96)">c</text><circle class="cls-3" cx="576.19" cy="92.76" r="11.37"/><text class="cls-4" transform="translate(191.69 157.58)">DE<tspan class="cls-5" x="64.97" y="0">V</tspan><tspan x="97.47" y="0">E</tspan><tspan class="cls-6" x="127.07" y="0">L</tspan><tspan x="154.32" y="0">OPMENT</tspan></text><path class="cls-7" d="M79.53,164l.35.8A3.15,3.15,0,0,0,79.53,164Z"/><path class="cls-7" d="M134.7,77.93c-3.88-1.46-11.64-11.16-16-14.07s-20.86-15.52-16-21.34,1.94-6.79,1.94-6.79,13.58-6.79,11.16-10.19c0,0,4.42-2,4.85-4.93-2.95.77-3.88-.85-8.55-.07s-4.8,3.2-9.61,3.2-11.21-2.4-14.41-1.6-7.21,6-7.21,6V27s4-4.8,7.21-5.6,9.61,1.6,14.41,1.6,4.8-2.4,9.61-3.2,5.56.71,8.56.05c0,0,0-.05,0-.08s1.94-2.91-3.4-5.34-5.34,1.94-10.19,1.46-2.43-3.4-7.76-2.43S95.41,10.5,91,13.9,72.13,27.48,76.49,37.67s2.91,17-2.43,25.22-9.7,10.19-8.73,17.95,2.43,13.1-1,21.34c0,0,2.91-.49.49,3.88,0,0,2.43-2.43,2.43-4.37s1.94,1.94,1,4.85a6.84,6.84,0,0,0,1.46-2.43c.49-1.46,1,4.85,0,6.31a14.35,14.35,0,0,1-1.46,1.94,38.07,38.07,0,0,0-3.88,14.07C63.88,134.2,46.9,148.27,22.65,140c-27.16-11.16,6.06-50.21,10.67-54.81,7-7,6.79-13.1,0-16.49C30,67,27.74,64.29,28.47,61.92c1-4.37-2.39-3-1.46-5.82a12.07,12.07,0,0,1,2.43-3.4s-5.34,2.91-2.91,5.82c1.58,1.9-2.43,6.31,0,8.73C29.26,70,33,72.36,33.32,75.51c.25,2.43-1.91,5.31-5.82,9.22C16.82,95.4,1.79,110.43.33,123.53-1.17,137,1.79,148.75,21.68,157s44.63-4.37,44.63-4.37-1.46,15-2.91,16.49c0,0,2.43-1.94,2.91-3.4s1.46-1,1.94,2.43a9.69,9.69,0,0,1-.49,5.34s2.91-5.34,2.91-8.73,1.94-1,2.43,0a24.61,24.61,0,0,1,1,4.37,17.34,17.34,0,0,0,1-7.28c-.43-3,3.27,0,4.5,2.11a91.89,91.89,0,0,0-5-9.88,8.78,8.78,0,0,1-1.46-5.82s11.64-12.61,14.07-18.43S93,123,94.44,124.5s1.46,1.94,1,3.4-2.43,7.76.49,11.64,7.28,8.25,9.7,15.52a2.12,2.12,0,0,0,.49-1.46c0-1,2.43,1,2.91,5.82a6.89,6.89,0,0,0,.49-5.34c-1-2.91-5.82-11.64-6.79-12.61s-1.46-3.88.49-7.76,4.85-13.1-5.82-20.37a79.59,79.59,0,0,0,9.7-49.48,12.3,12.3,0,0,1,6.31,3.4,34,34,0,0,0,10.19,6.79c5.82,2.43,9.7,8.73,12.61,8.73a5.46,5.46,0,0,1-1.94-2.43c-.49-1.46,3.88,1.46,4.37,2.43,0,0,.49-1,0-1.46s1,0,1.46.49S138.58,79.39,134.7,77.93ZM93.47,14.39a5.63,5.63,0,0,1,4.85,2.91,26.12,26.12,0,0,1-3.88.49,20,20,0,0,1-4.37-1S91.53,14.39,93.47,14.39Z"/></g></g></svg>